<?xml version="1.0" encoding="UTF-8"?>
<!DOCTYPE svg PUBLIC "-//W3C//DTD SVG 1.1//EN" "http://www.w3.org/Graphics/SVG/1.1/DTD/svg11.dtd">
<svg xmlns="http://www.w3.org/2000/svg" version="1.1" width="408px" height="101px" style="shape-rendering:geometricPrecision; text-rendering:geometricPrecision; image-rendering:optimizeQuality; fill-rule:evenodd; clip-rule:evenodd" xmlns:xlink="http://www.w3.org/1999/xlink">
<g><path style="opacity:1" fill="#fefefe" d="M -0.5,-0.5 C 135.5,-0.5 271.5,-0.5 407.5,-0.5C 407.5,33.1667 407.5,66.8333 407.5,100.5C 271.5,100.5 135.5,100.5 -0.5,100.5C -0.5,66.8333 -0.5,33.1667 -0.5,-0.5 Z"/></g>
<g><path style="opacity:1" fill="#f65810" d="M 17.5,25.5 C 48.9562,21.0293 59.7895,34.0293 50,64.5C 48.8333,67 47,68.8333 44.5,70C 10.3489,78.8492 -1.81775,66.3492 8,32.5C 10.529,29.1151 13.6956,26.7818 17.5,25.5 Z"/></g>
<g><path style="opacity:1" fill="#fff7f4" d="M 16.5,36.5 C 21.5111,36.3341 26.5111,36.5007 31.5,37C 34.1667,39.3333 34.1667,41.6667 31.5,44C 26.5,44.6667 21.5,44.6667 16.5,44C 13.9142,41.506 13.9142,39.006 16.5,36.5 Z"/></g>
<g><path style="opacity:1" fill="#fff0e9" d="M 16.5,52.5 C 24.1739,52.3336 31.8406,52.5003 39.5,53C 43.0406,55.2825 43.3739,57.9491 40.5,61C 32.5,61.6667 24.5,61.6667 16.5,61C 12.6054,58.178 12.6054,55.3446 16.5,52.5 Z"/></g>
<g><path style="opacity:1" fill="#66d4d6" d="M 260.5,56.5 C 266.19,56.354 269.19,59.1873 269.5,65C 267.674,72.1733 263.841,73.34 258,68.5C 256.888,64.0186 257.721,60.0186 260.5,56.5 Z"/></g>
<g><path style="opacity:1" fill="#f5fcfc" d="M 262.5,57.5 C 264.017,57.5106 265.184,58.1772 266,59.5C 267.299,65.8067 264.799,68.4733 258.5,67.5C 258.186,63.4682 259.519,60.1348 262.5,57.5 Z"/></g>
<g><path style="opacity:1" fill="#67d4d6" d="M 204.5,68.5 C 204.804,71.2327 203.637,72.8994 201,73.5C 198.556,72.3528 196.223,71.0194 194,69.5C 193.51,70.7932 193.343,72.1266 193.5,73.5C 189.734,73.2847 186.4,71.9513 183.5,69.5C 179.553,75.6502 174.887,76.1502 169.5,71C 168.12,69.0748 166.62,67.2415 165,65.5C 163.093,69.0388 160.26,71.5388 156.5,73C 151.299,73.0851 147.966,70.5851 146.5,65.5C 147.809,63.2667 149.809,61.9334 152.5,61.5C 153.641,59.5787 153.808,57.5787 153,55.5C 151,53.5 149,51.5 147,49.5C 145.237,50.9437 143.237,51.9437 141,52.5C 140.091,58.4857 139.257,64.4857 138.5,70.5C 134.373,71.7043 130.207,72.7043 126,73.5C 123.081,72.5456 120.748,70.8789 119,68.5C 118.506,70.1341 118.34,71.8008 118.5,73.5C 114.305,73.3192 110.805,71.6525 108,68.5C 107.506,70.1341 107.34,71.8008 107.5,73.5C 105.046,73.6795 102.879,73.0128 101,71.5C 97.1343,74.1254 93.4676,73.7921 90,70.5C 89,68.5 88,66.5 87,64.5C 84.5811,68.7516 81.0811,71.7516 76.5,73.5C 72.1622,72.4956 69.4956,69.8289 68.5,65.5C 69.4228,63.3643 71.0895,62.1976 73.5,62C 74.8045,61.196 75.4712,60.0293 75.5,58.5C 74.2873,55.4458 72.454,52.7792 70,50.5C 68.6625,44.1867 69.9958,38.52 74,33.5C 77.441,29.0181 81.6076,25.8515 86.5,24C 89.4286,27.266 90.9286,31.0993 91,35.5C 91.9876,32.5755 92.6543,29.5755 93,26.5C 97.33,25.5837 100.497,27.2504 102.5,31.5C 105.684,23.6558 109.517,23.6558 114,31.5C 114.644,26.8563 117.31,24.1896 122,23.5C 127.934,25.3334 131.601,29.3334 133,35.5C 134.564,25.303 140.397,21.4697 150.5,24C 154.057,31.0523 151.89,35.219 144,36.5C 143.598,37.8721 143.098,39.2054 142.5,40.5C 143.325,41.3857 144.325,41.719 145.5,41.5C 145.238,42.9778 145.571,44.3112 146.5,45.5C 149.203,35.3179 155.203,28.1512 164.5,24C 168.128,27.8305 169.295,32.3305 168,37.5C 163.27,39.3954 160.103,42.7287 158.5,47.5C 160.495,50.3444 162.328,53.3444 164,56.5C 165.158,42.5065 171.658,31.8398 183.5,24.5C 185.233,26.8425 187.067,29.1758 189,31.5C 190.673,24.6058 194.84,22.4391 201.5,25C 204.664,28.3205 206.997,32.1539 208.5,36.5C 209.379,32.8459 210.213,29.1792 211,25.5C 215.366,23.5199 218.366,24.8532 220,29.5C 219.892,33.1568 219.892,36.8235 220,40.5C 221.254,36.2297 222.254,31.8964 223,27.5C 231.148,22.1515 236.815,24.1515 240,33.5C 241.048,27.796 244.548,24.9627 250.5,25C 254.486,24.5012 258.486,24.3345 262.5,24.5C 262.449,26.5695 263.115,28.4029 264.5,30C 264.313,35.2278 261.646,37.3944 256.5,36.5C 253.441,48.637 251.774,60.9703 251.5,73.5C 247.305,73.3192 243.805,71.6525 241,68.5C 240.909,58.9304 242.409,49.5971 245.5,40.5C 244.272,38.679 242.606,37.679 240.5,37.5C 240.428,44.5523 238.095,50.719 233.5,56C 230.614,56.6061 228.448,58.1061 227,60.5C 226.501,64.8206 226.334,69.1539 226.5,73.5C 223.059,72.9105 219.892,71.5772 217,69.5C 217.105,60.1064 217.772,50.773 219,41.5C 216.243,51.6309 214.743,61.9643 214.5,72.5C 210.964,71.6205 207.631,70.2872 204.5,68.5 Z"/></g>
<g><path style="opacity:1" fill="#f2fbfb" d="M 129.5,50.5 C 130.097,50.7352 130.43,51.2352 130.5,52C 129.614,56.1513 128.78,60.3179 128,64.5C 125.572,59.4269 126.072,54.7603 129.5,50.5 Z"/></g>
<g><path style="opacity:1" fill="#edfafa" d="M 204.5,68.5 C 202.906,64.525 201.572,60.3583 200.5,56C 202.727,53.4359 204.561,50.6026 206,47.5C 204.918,54.3986 204.418,61.3986 204.5,68.5 Z"/></g>
<g><path style="opacity:1" fill="#f6fcfc" d="M 185.5,38.5 C 186.497,38.4701 187.164,38.9701 187.5,40C 185.192,48.3463 183.692,56.8463 183,65.5C 182.667,65.8333 182.333,66.1667 182,66.5C 181.506,64.8659 181.34,63.1992 181.5,61.5C 179.248,62.3331 177.081,62.3331 175,61.5C 174.182,51.8064 177.682,44.1398 185.5,38.5 Z"/></g>
<g><path style="opacity:1" fill="#f8fdfd" d="M 88.5,37.5 C 89.4972,37.4701 90.1639,37.9701 90.5,39C 88.8189,45.4056 87.6523,51.9056 87,58.5C 84.8176,54.7956 82.651,51.1289 80.5,47.5C 82.0794,43.2584 84.7461,39.925 88.5,37.5 Z"/></g>
<g><path style="opacity:1" fill="#f9fdfd" d="M 105.5,26.5 C 107.903,26.695 109.57,27.8616 110.5,30C 107.646,43.6615 104.979,57.1615 102.5,70.5C 101.059,69.696 99.5589,69.0294 98,68.5C 95.0288,70.1023 92.3622,69.769 90,67.5C 89.0362,53.8785 90.5362,40.5452 94.5,27.5C 97.3523,27.3524 99.019,28.6857 99.5,31.5C 96.381,41.2947 94.881,51.2947 95,61.5C 96.3333,62.8333 97.6667,62.8333 99,61.5C 100.978,49.776 103.145,38.1093 105.5,26.5 Z"/></g>
<g><path style="opacity:1" fill="#f8fdfd" d="M 254.5,25.5 C 256.5,25.5 258.5,25.5 260.5,25.5C 261.448,31.3849 258.948,34.3849 253,34.5C 250.003,46.3176 248.503,58.3176 248.5,70.5C 244.207,70.701 242.207,68.701 242.5,64.5C 243.588,55.2286 245.254,46.0619 247.5,37C 247.167,36.1667 246.833,35.3333 246.5,34.5C 244.929,35.3094 243.262,35.6427 241.5,35.5C 241.317,33.0637 241.984,30.897 243.5,29C 247.232,27.6578 250.899,26.4912 254.5,25.5 Z"/></g>
<g><path style="opacity:1" fill="#f9fdfd" d="M 226.5,26.5 C 230.287,25.8144 233.454,26.8144 236,29.5C 237.356,36.576 236.356,43.2426 233,49.5C 230.654,52.5045 227.654,54.5045 224,55.5C 223.822,60.6269 222.988,65.6269 221.5,70.5C 218.914,70.0542 217.58,68.5542 217.5,66C 219.151,53.7433 221.318,41.5766 224,29.5C 224.698,28.3094 225.531,27.3094 226.5,26.5 Z"/></g>
<g><path style="opacity:1" fill="#58d1d2" d="M 228.5,33.5 C 229.5,33.5 230.5,33.5 231.5,33.5C 232.041,38.449 231.208,43.1156 229,47.5C 228,48.1667 227,48.8333 226,49.5C 225.853,44.0085 226.686,38.6752 228.5,33.5 Z"/></g>
<g><path style="opacity:1" fill="#f9fdfd" d="M 212.5,26.5 C 215.261,25.9147 216.927,26.9147 217.5,29.5C 213.946,42.2685 211.946,55.2685 211.5,68.5C 207.662,68.9928 205.662,67.3262 205.5,63.5C 207.453,51.0704 209.786,38.737 212.5,26.5 Z"/></g>
<g><path style="opacity:1" fill="#f9fdfd" d="M 194.5,25.5 C 201.737,25.2375 205.07,28.7375 204.5,36C 204.12,42.4741 201.787,48.1408 197.5,53C 198.645,57.8942 199.978,62.7276 201.5,67.5C 199.977,69.2825 197.977,69.9492 195.5,69.5C 192.501,51.1436 190.501,51.1436 189.5,69.5C 186.07,70.2447 184.403,68.9114 184.5,65.5C 185.913,53.357 188.079,41.357 191,29.5C 191.69,27.6498 192.856,26.3164 194.5,25.5 Z"/></g>
<g><path style="opacity:1" fill="#64d4d5" d="M 195.5,33.5 C 198.309,33.5878 199.642,35.0878 199.5,38C 198.649,42.2079 196.649,45.7079 193.5,48.5C 193.167,47.6667 192.833,46.8333 192.5,46C 193.739,41.879 194.739,37.7124 195.5,33.5 Z"/></g>
<g><path style="opacity:1" fill="#f9fdfd" d="M 182.5,26.5 C 183.765,27.5145 184.431,29.0145 184.5,31C 184.167,32.5 183.833,34 183.5,35.5C 172.602,41.9266 169.269,51.0933 173.5,63C 175.81,63.4966 178.143,63.6633 180.5,63.5C 180.19,69.3034 177.19,71.4701 171.5,70C 169.667,69.5 168.5,68.3333 168,66.5C 163.985,49.8584 168.819,36.5251 182.5,26.5 Z"/></g>
<g><path style="opacity:1" fill="#f9fdfd" d="M 162.5,25.5 C 163.75,25.5774 164.583,26.244 165,27.5C 165.814,29.9018 165.647,32.2351 164.5,34.5C 153.572,40.3041 152.739,47.3041 162,55.5C 163.064,60.8776 161.231,65.0443 156.5,68C 154.305,69.373 151.971,69.7063 149.5,69C 148.253,67.5064 148.253,66.0064 149.5,64.5C 155.466,63.1615 156.966,59.8281 154,54.5C 149.856,51.8838 148.189,48.2172 149,43.5C 151.443,35.8987 155.943,29.8987 162.5,25.5 Z"/></g>
<g><path style="opacity:1" fill="#f9fdfd" d="M 119.5,25.5 C 126.687,25.1884 130.02,28.6884 129.5,36C 129.376,42.58 127.043,48.2467 122.5,53C 123.833,57.6667 125.167,62.3333 126.5,67C 126.355,67.772 126.022,68.4387 125.5,69C 123.866,69.4935 122.199,69.6602 120.5,69.5C 117.897,50.9337 115.897,50.9337 114.5,69.5C 110.51,70.1762 108.843,68.5095 109.5,64.5C 111.101,54.1229 112.935,43.7896 115,33.5C 115.498,30.1794 116.998,27.5128 119.5,25.5 Z"/></g>
<g><path style="opacity:1" fill="#60d3d4" d="M 120.5,33.5 C 123.488,33.1547 124.821,34.488 124.5,37.5C 123.793,41.9179 121.793,45.5846 118.5,48.5C 118.167,48 117.833,47.5 117.5,47C 118.821,42.5594 119.821,38.0594 120.5,33.5 Z"/></g>
<g><path style="opacity:1" fill="#f9fdfd" d="M 84.5,25.5 C 85.7498,25.5774 86.5831,26.244 87,27.5C 87.8141,29.9018 87.6474,32.2351 86.5,34.5C 79.9842,37.1362 77.1508,41.8028 78,48.5C 86.3849,54.845 86.5516,61.345 78.5,68C 74.3439,70.7144 71.3439,69.8811 69.5,65.5C 79.6513,61.3119 80.1513,55.9786 71,49.5C 70.2384,43.9996 71.5718,38.9996 75,34.5C 78.0623,31.2678 81.229,28.2678 84.5,25.5 Z"/></g>
<g><path style="opacity:1" fill="#f8fdfd" d="M 141.5,25.5 C 144.247,25.1866 146.914,25.52 149.5,26.5C 148.305,30.8447 145.472,33.178 141,33.5C 139.851,36.3926 139.351,39.3926 139.5,42.5C 141.167,42.5 142.833,42.5 144.5,42.5C 144.334,46.2405 142.334,48.4072 138.5,49C 137.874,49.7504 137.374,50.5838 137,51.5C 136.187,56.8149 135.521,62.1483 135,67.5C 133.416,68.8613 131.582,69.528 129.5,69.5C 131.035,55.6575 133.535,41.9908 137,28.5C 138.409,27.2189 139.909,26.2189 141.5,25.5 Z"/></g>
<g><path style="opacity:1" fill="#66d4d6" d="M 286.5,24.5 C 288.833,24.5 291.167,24.5 293.5,24.5C 293.715,26.7743 294.382,28.941 295.5,31C 292.725,41.3295 291.891,51.8295 293,62.5C 294.856,50.0758 297.189,37.7424 300,25.5C 304.119,24.0555 307.119,25.3889 309,29.5C 307.011,42.7746 305.011,56.1079 303,69.5C 302.751,70.624 302.251,71.624 301.5,72.5C 298.42,71.2115 295.586,69.5448 293,67.5C 293.054,70.1906 291.887,72.0239 289.5,73C 287.241,72.5613 284.908,72.0613 282.5,71.5C 282.808,69.076 282.474,66.7427 281.5,64.5C 280.52,67.0865 280.187,69.7531 280.5,72.5C 277.593,72.4248 274.927,71.5914 272.5,70C 271.056,68.874 270.39,67.374 270.5,65.5C 272.749,53.5869 275.915,41.9202 280,30.5C 281.494,27.6865 283.66,25.6865 286.5,24.5 Z"/></g>
<g><path style="opacity:1" fill="#f9fdfd" d="M 301.5,26.5 C 303.948,26.0101 305.615,26.8434 306.5,29C 303.033,41.9657 300.7,55.1324 299.5,68.5C 295.259,69.0908 293.593,67.2575 294.5,63C 296.266,50.6733 298.599,38.5067 301.5,26.5 Z"/></g>
<g><path style="opacity:1" fill="#fafdfd" d="M 286.5,26.5 C 288.167,26.5 289.833,26.5 291.5,26.5C 290.042,40.4435 289.042,54.4435 288.5,68.5C 286.929,69.3094 285.262,69.6427 283.5,69.5C 283.5,66.5 283.5,63.5 283.5,60.5C 281.533,60.2606 279.699,60.5939 278,61.5C 277.904,64.4512 277.071,67.1178 275.5,69.5C 273.488,68.5475 272.488,66.8809 272.5,64.5C 274.129,53.5236 276.963,42.8569 281,32.5C 282.021,29.6499 283.854,27.6499 286.5,26.5 Z"/></g>
<g><path style="opacity:1" fill="#61d3d5" d="M 284.5,37.5 C 285.152,38.4486 285.486,39.6153 285.5,41C 284.959,44.8279 284.459,48.6612 284,52.5C 282.989,53.3366 281.822,53.67 280.5,53.5C 281.208,48.0024 282.541,42.669 284.5,37.5 Z"/></g>
</svg>
